<svg width="221" height="166" viewBox="0 0 221 166" fill="none" xmlns="http://www.w3.org/2000/svg">
<path fill-rule="evenodd" clip-rule="evenodd" d="M195.439 6.22581C195.44 6.2943 196.313 8.1692 197.379 10.3918C205.728 27.7863 204.542 51.6545 194.275 72.8442C192.242 77.0394 192.241 76.998 194.21 71.3174C197.907 60.6517 199.143 53.2179 199.142 41.654C199.142 32.0334 198.46 27.2358 196.114 20.3382C194.821 16.5356 191.834 10.383 190.16 8.07148L188.891 6.3196H185.404C183.486 6.3196 181.917 6.42298 181.917 6.54948C181.917 6.67599 182.966 8.51948 184.248 10.6461C190.136 20.4136 192.706 31.2168 192.248 44.2713C191.846 55.7057 189.393 65.7664 184.276 76.96C182.527 80.7875 181.802 81.478 183.157 78.0266C184.588 74.3811 186.642 66.5298 187.594 61.0661C190.098 46.7033 188.798 33.0415 183.796 21.1513C182.379 17.781 176.8 8.68133 175.125 7.00578C174.551 6.43215 173.142 6.3196 166.545 6.3196C162.204 6.3196 158.755 6.42386 158.883 6.5508C159.01 6.67818 160.247 6.96652 161.633 7.19205C168.223 8.26474 174.317 13.2665 177.722 20.3984C181.04 27.3475 182.404 34.3097 182.397 44.2713C182.381 67.3604 172.226 92.46 156.759 107.64C149.547 114.718 144.281 117.669 135.24 119.701C133.866 120.01 139.296 120.075 153.344 119.918C175.855 119.667 176.919 119.548 182.588 116.649C200.377 107.551 215.809 82.0774 219.649 55.4658C220.56 49.1536 220.542 38.0145 219.612 32.5547C218.718 27.3017 216.82 21.8026 214.595 18.0148C212.826 15.0027 208.8 10.2792 208.364 10.7045C208.229 10.8372 208.586 12.3094 209.158 13.9762C211.347 20.3521 212.144 25.593 212.172 33.8019C212.2 42.0361 211.777 45.5992 209.838 53.4321C208.38 59.3216 207.47 61.9176 204.484 68.7001C202.169 73.9597 200.796 76.3101 202.445 72.1899C205.377 64.8656 207.83 54.0764 208.558 45.3008C209.604 32.6939 207.23 19.8274 202.087 10.2456C201.251 8.68612 200.385 7.18332 200.165 6.90545C199.827 6.48187 195.439 5.85066 195.439 6.22581ZM148.32 10.1933C128.823 15.4581 110.514 41.4372 106.219 69.9294C105.371 75.5501 105.393 86.167 106.262 91.1658C106.638 93.3251 107.448 96.5641 108.062 98.3635C109.049 101.254 109.766 102.798 112.054 106.969C113.114 108.899 117.959 113.402 120.343 114.671C123.594 116.403 126.584 117.11 130.677 117.116C134.866 117.122 138.267 116.312 142.569 114.284C159.348 106.37 174.239 83.9401 178.622 59.9755C182.125 40.8287 178.296 22.8513 168.961 14.6192C163.553 9.84997 155.771 8.18141 148.32 10.1933ZM147.455 18.0523C136.915 20.9314 126.416 31.1226 119.32 45.3619C111.41 61.2371 109.004 78.5091 112.849 91.8083C114.258 96.6818 116.048 99.9435 119.197 103.381C131.533 116.843 153.719 106.248 166.244 80.9144C172.27 68.7262 175.264 54.3538 174.109 43.1616C173.493 37.1953 172.594 33.8529 170.359 29.2215C165.705 19.5748 157.152 15.4036 147.455 18.0523ZM148.763 27.9957C143.355 28.8987 137.529 32.3257 132.896 37.3297C117.499 53.9599 113.416 82.9804 124.864 94.4279C131.989 101.552 142.528 99.5775 152.325 89.2817C158.468 82.8268 163.436 73.2447 165.825 63.2446C166.715 59.5201 166.863 57.8358 166.836 51.6872C166.808 45.1211 166.705 44.1832 165.652 40.9996C163.173 33.5013 158.971 29.2599 152.936 28.1645C151.513 27.9063 150.237 27.7213 150.101 27.754C149.965 27.7867 149.363 27.8954 148.763 27.9957ZM147.361 37.5818C149.494 38.6331 152.417 42.1312 153.477 44.9004C158.856 58.9578 149.972 82.2113 136.767 88.6352L134.586 89.6965L137.24 89.536C140.766 89.3231 144.156 87.6288 147.71 84.3048C155.585 76.9382 160.144 66.1124 160.162 54.7351C160.171 49.5436 159.635 46.8595 157.898 43.3989C155.721 39.0602 152.423 36.8463 148.165 36.8655L145.928 36.8755L147.361 37.5818ZM138.294 44.503C138.294 44.6299 138.956 45.3157 139.766 46.0263C144.381 50.0784 144.786 61.1629 140.64 69.9481C138.186 75.1501 134.937 79.0452 131.375 81.0562L129.472 82.1302L131.157 82.4054C137.299 83.4088 145.161 75.6278 148.312 65.4284C149.642 61.1219 149.935 55.6918 149.027 52.1592C147.619 46.6798 145.11 44.2713 140.81 44.2713C139.426 44.2713 138.294 44.3756 138.294 44.503ZM132.841 52.9248C130.829 54.1519 128.706 56.8077 127.22 59.955C126.028 62.4825 125.872 63.2629 125.867 66.737C125.86 71.5953 126.835 73.6033 129.603 74.4325C131.591 75.0284 132.192 74.7095 131.183 73.5945C127.154 69.142 129.554 57.6016 135.387 53.3759L137.116 52.1234L135.633 52.1252C134.817 52.126 133.561 52.486 132.841 52.9248Z" fill="black"/>
<path d="M129.826 0.888992C131.623 0.623329 133.584 0.333679 134.183 0.245561C139.205 -0.491663 150.141 0.526924 153.3 2.0258C155.149 2.90349 154.767 3.11069 149.927 3.85403C135.991 5.99372 120.835 16.3707 111.147 30.4059C109.868 32.2585 108.688 34.0065 108.524 34.2896C108.312 34.656 107.374 34.3908 105.275 33.3713C100.473 31.0397 96.5103 30.2776 89.4701 30.3313C84.7239 30.3675 82.7068 30.5729 80.4184 31.2539C78.7991 31.7359 77.4738 31.9907 77.4738 31.8197C77.4738 31.236 80.5654 28.3242 81.9399 27.6136C84.1873 26.451 85.6648 26.1526 92.3919 25.4996C99.0815 24.8505 101.187 24.2023 101.588 22.6681C102.075 20.8062 101.308 19.8147 98.7534 19.0011C98.3407 18.8698 95.298 19.1638 91.9919 19.6546C82.4791 21.0671 78.7712 20.3469 74.357 16.2302C71.6183 13.6757 70.3594 11.7401 69.2016 8.30311C67.8746 4.36398 68.0099 3.95348 70.0318 5.7804C77.1235 12.1873 93.2565 14.1398 104.52 9.95423C105.839 9.46391 109.564 7.87866 112.796 6.43126C119.564 3.40166 125.164 1.5791 129.826 0.888992Z" fill="black"/>
<path d="M35.0542 8.18619C35.2427 7.99774 36.5701 7.55018 38.0044 7.19073C39.6782 6.77151 42.2598 6.57303 45.21 6.63672C51.7692 6.77805 53.7858 7.83896 61.4678 15.1863C65.5522 19.0927 68.1019 21.1683 69.9555 22.0944L72.6047 23.4179L69.692 25.5908C63.3959 30.2876 58.2628 32.0216 50.6459 32.0264C43.5441 32.0308 39.8829 30.836 31.4899 25.7766C28.11 23.7394 24.0687 21.4916 22.5092 20.7809C18.5592 18.9819 12.1768 17.4743 7.04717 17.1293L2.70889 16.8374L4.64749 15.117C8.02956 12.1157 11.8592 10.5606 16.8383 10.1671C22.6253 9.7095 27.5625 11.4239 33.0908 15.8106C37.6773 19.45 39.7493 20.6475 44.1164 22.1825C47.4466 23.3529 48.487 23.3224 49.793 22.0159C51.784 20.0254 50.8753 16.6185 47.7096 14.2044C45.5141 12.5297 41.5244 10.6182 37.9085 9.50883C36.1509 8.96922 34.8662 8.37421 35.0542 8.18619Z" fill="black"/>
<path d="M53.4813 45.6943C56.4804 44.7394 60.6027 43.5952 62.6421 43.152C67.2173 42.1574 74.2126 42.047 77.5523 42.9173C85.5253 44.9937 91.6407 51.2261 94.7353 60.4283L95.8944 63.8741L95.1999 67.8001C92.0198 85.7831 96.4056 104.78 106.588 117.125C107.861 118.667 108.652 119.925 108.346 119.92C107.288 119.901 104.119 118.239 101.79 116.481C98.3394 113.876 93.674 111.897 87.2889 110.33C80.0074 108.544 75.1967 107.022 72.4572 105.64C65.8388 102.301 59.3469 94.8789 54.6216 85.2492C53.1655 82.2815 47.7738 76.3916 44.6988 74.4098C42.6071 73.0614 43.1489 72.6871 46.8799 72.9031C50.7493 73.1273 53.3082 74.3082 55.758 77.0006C59.346 80.9432 63.3431 82.1886 65.4972 80.0341C66.8456 78.6861 66.8377 78.0977 65.4335 75.2975C62.434 69.3169 54.3429 65.4008 44.985 65.4008C40.2746 65.4008 35.5585 64.4822 32.0609 62.8829C28.7259 61.3583 22.8587 57.0693 20.8433 54.6827C20.0467 53.7401 19.0543 52.5758 18.6373 52.0959C15.8249 48.8569 14.7523 46.6876 16.2472 47.2612C16.642 47.413 19.2432 48.0665 22.0272 48.7139C26.2486 49.6949 28.1043 49.8908 33.1968 49.8904C39.8519 49.8904 41.1448 49.623 53.4813 45.6943Z" fill="black"/>
<path d="M8.15738 67.4005C9.93283 67.0415 12.1707 66.6746 13.1304 66.5856C21.543 65.8031 31.595 71.2118 38.2566 80.1048C40.1843 82.6781 40.4565 83.4702 38.9162 82.0228C38.3425 81.4841 36.6251 80.6513 35.0992 80.1719C32.5625 79.3749 31.6102 79.3265 24.009 79.6031C13.967 79.9687 12.3386 79.6323 7.82148 76.2581C5.21982 74.3147 -0.465514 67.7277 0.0304757 67.2317C0.119466 67.1427 1.25844 67.2906 2.56101 67.561C4.45293 67.9541 5.57841 67.9218 8.15738 67.4005Z" fill="black"/>
<path d="M23.3817 89.1159C23.3817 89.0422 24.0199 88.7883 24.7994 88.551C25.579 88.3141 28.5728 88.1697 31.4519 88.2308C35.832 88.3233 37.0783 88.51 39.0859 89.3737C42.7995 90.972 45.6912 93.3573 47.9378 96.6748C50.4347 100.364 51.8516 101.13 56.8228 101.48C58.8238 101.622 60.461 101.876 60.461 102.044C60.461 102.959 58.207 105.458 56.343 106.611C54.284 107.884 54.0157 107.933 49.1531 107.933C44.3773 107.933 43.976 107.863 41.7822 106.648C38.897 105.05 37.2367 103.192 36.2452 100.454C34.0331 94.3449 32.4526 92.7113 26.5945 90.4756C24.8273 89.8012 23.3817 89.1896 23.3817 89.1159Z" fill="black"/>
<path d="M19.3661 160V142.043H22.1859C23.8217 142.043 25.018 142.149 25.7748 142.361C26.849 142.646 27.7035 143.175 28.3383 143.948C28.973 144.721 29.2904 145.632 29.2904 146.682C29.2904 147.366 29.1439 147.988 28.851 148.55C28.5661 149.103 28.0982 149.624 27.4472 150.112C28.5377 150.625 29.3352 151.268 29.8397 152.041C30.3443 152.806 30.5966 153.713 30.5966 154.763C30.5966 155.772 30.3362 156.692 29.8153 157.522C29.2945 158.352 28.6231 158.975 27.8012 159.39C26.9792 159.797 25.844 160 24.3954 160H19.3661ZM22.7841 145.303V149.087H23.5287C24.3588 149.087 24.9732 148.912 25.372 148.562C25.7789 148.212 25.9823 147.736 25.9823 147.134C25.9823 146.572 25.7911 146.129 25.4086 145.803C25.0261 145.47 24.4442 145.303 23.663 145.303H22.7841ZM22.7841 152.139V156.741H23.6386C25.0546 156.741 26.0067 156.562 26.495 156.204C26.9914 155.846 27.2396 155.325 27.2396 154.641C27.2396 153.868 26.9507 153.258 26.3729 152.81C25.7951 152.362 24.8349 152.139 23.4921 152.139H22.7841ZM33.2803 142.043H43.0825V145.388H36.6738V148.635H43.0825V151.919H36.6738V156.643H43.0825V160H33.2803V142.043ZM44.399 142.043H48.0733L51.4181 148.489L54.7384 142.043H58.3639L53.1148 152.224V160H49.6725V152.224L44.399 142.043ZM69.0676 141.592C71.6066 141.592 73.7876 142.511 75.6105 144.351C77.4416 146.19 78.3571 148.432 78.3571 151.077C78.3571 153.697 77.4538 155.915 75.6472 157.729C73.8487 159.544 71.6636 160.452 69.092 160.452C66.3983 160.452 64.1604 159.52 62.3781 157.656C60.5959 155.793 59.7048 153.579 59.7048 151.016C59.7048 149.299 60.1198 147.72 60.9499 146.279C61.78 144.839 62.9193 143.7 64.3679 142.861C65.8246 142.015 67.3911 141.592 69.0676 141.592ZM69.031 144.937C67.3708 144.937 65.9751 145.514 64.8439 146.67C63.7128 147.826 63.1472 149.294 63.1472 151.077C63.1472 153.062 63.8592 154.633 65.2834 155.789C66.3902 156.692 67.6597 157.144 69.092 157.144C70.7115 157.144 72.0909 156.558 73.2302 155.386C74.3695 154.214 74.9392 152.769 74.9392 151.052C74.9392 149.343 74.3654 147.899 73.218 146.719C72.0705 145.531 70.6748 144.937 69.031 144.937ZM80.992 142.043H84.2635L91.9661 153.86V142.043H95.3841V160H92.1004L84.41 148.22V160H80.992V142.043ZM98.8979 142.043H102.951C105.563 142.043 107.504 142.369 108.773 143.02C110.043 143.663 111.089 144.713 111.911 146.169C112.732 147.626 113.143 149.327 113.143 151.272C113.143 152.655 112.912 153.929 112.448 155.093C111.992 156.248 111.357 157.209 110.543 157.974C109.738 158.739 108.863 159.268 107.919 159.561C106.975 159.854 105.339 160 103.012 160H98.8979V142.043ZM102.304 145.339V156.655H103.891C105.453 156.655 106.584 156.476 107.284 156.118C107.992 155.76 108.57 155.158 109.017 154.312C109.465 153.465 109.689 152.424 109.689 151.187C109.689 149.282 109.156 147.805 108.09 146.755C107.129 145.811 105.587 145.339 103.463 145.339H102.304ZM122.21 142.043H125.481L133.184 153.86V142.043H136.602V160H133.318L125.628 148.22V160H122.21V142.043ZM140.115 142.043H149.918V145.388H143.509V148.635H149.918V151.919H143.509V156.643H149.918V160H140.115V142.043ZM150.746 142.043H160.67V145.413H157.399V160H153.932V145.413H150.746V142.043ZM162.646 142.043H166.271C168.257 142.043 169.669 142.222 170.507 142.581C171.354 142.931 172.033 143.516 172.546 144.338C173.059 145.16 173.315 146.133 173.315 147.256C173.315 148.436 173.03 149.425 172.46 150.222C171.899 151.012 171.048 151.61 169.909 152.017L174.157 160H170.422L166.381 152.395H166.064V160H162.646V142.043ZM166.064 149.062H167.138C168.229 149.062 168.977 148.92 169.384 148.635C169.799 148.35 170.007 147.878 170.007 147.219C170.007 146.829 169.905 146.491 169.702 146.206C169.498 145.913 169.225 145.706 168.884 145.583C168.542 145.453 167.915 145.388 167.004 145.388H166.064V149.062ZM176.072 142.043H179.465V160H176.072V142.043ZM192.134 144.485L189.608 146.719C188.72 145.482 187.817 144.863 186.898 144.863C186.45 144.863 186.084 144.985 185.799 145.229C185.514 145.465 185.372 145.734 185.372 146.035C185.372 146.336 185.473 146.621 185.677 146.89C185.954 147.248 186.788 148.017 188.179 149.197C189.481 150.287 190.271 150.975 190.547 151.26C191.239 151.96 191.727 152.631 192.012 153.274C192.305 153.909 192.452 154.604 192.452 155.361C192.452 156.834 191.943 158.051 190.926 159.011C189.909 159.972 188.582 160.452 186.946 160.452C185.669 160.452 184.554 160.138 183.602 159.512C182.658 158.885 181.848 157.9 181.172 156.558L184.041 154.824C184.904 156.411 185.897 157.205 187.02 157.205C187.606 157.205 188.098 157.034 188.497 156.692C188.895 156.35 189.095 155.955 189.095 155.508C189.095 155.101 188.944 154.694 188.643 154.287C188.342 153.88 187.679 153.258 186.653 152.419C184.7 150.824 183.439 149.596 182.869 148.733C182.3 147.862 182.015 146.995 182.015 146.133C182.015 144.888 182.487 143.822 183.431 142.935C184.383 142.039 185.555 141.592 186.946 141.592C187.842 141.592 188.692 141.799 189.498 142.214C190.311 142.629 191.19 143.386 192.134 144.485Z" fill="black"/>
</svg>
